<?xml version="1.0" encoding="UTF-8"?>
<svg viewBox="0 0 513 296" xmlns="http://www.w3.org/2000/svg">
 <path d="m177.27 202.99l-67.175-10.901 42.336-54.68c21.945 19.025 24.675 41.862 24.839 65.581zm18.479 4.0006c0.10803-2.3699 0.49088-6.1807 0.49088-8.8488 0-27.058-8.8029-53.352-32.695-75.205l24.883-29.623 38.514 116.82-31.192-3.1473zm147.83-116.27l-2.1349-6.5011-137.18-0.1785 36.492 109.99 1.575-11.474h-4.1986l0.527-7.302h18.36l-0.5255 6.781h-4.7218l-1.0486 12.519s92.328-103.32 92.853-103.84zm60.755 105.66c-18.422-14.549-32.76-28.415-43.101-56.164-16.32 14.721-25.632 36.013-25.632 57.922 0 43.508 35.692 78.996 79.452 78.996 43.759 0 79.449-35.487 79.449-78.996 0-43.51-35.69-78.996-79.449-78.996-13.966 0-28.243 4.0107-39.754 10.767 7.7928 24.482 15.372 37.109 39.348 56.299 5.8203 0.24408 10.245 4.8901 10.245 10.432 0 5.7467-4.7126 10.432-10.491 10.432-5.7789 0-10.067-4.6857-10.067-10.693zm-229.87 23.391c-8.9856 33.295-40.953 57.365-76.334 57.365-43.76 0-79.452-35.487-79.452-78.998 0-43.51 35.692-78.999 79.452-78.999 13.967 0 30.126 3.2783 41.916 10.14l-43.124 56.929c-5.2741 0.082458-9.8663 4.768-9.8663 10.432 0 5.7467 4.7149 10.432 10.492 10.432 1.5995 0 3.2788-0.40732 4.6973-1.0717l72.219 13.77zm195.17-108.15l-28.144-77.2 8.9182-15.128-17.836-19.298h-38.295l-0.5255 10.953h33.574l6.8199 7.302-7.8687 14.083 9.8948 34.871h-137.43l-2.0989-6.3775c11.045-1.4294 30.096-8.196 34.646-12.124 4.5499-3.9305 0.5661-7.5446-4.6168-7.714-27.126-1.1456-67.425-3.4049-75.081-3.4377-7.654-0.035141-8.4386 3.7932-3.3141 9.3668 5.1245 5.5728 9.6039 10.591 29.019 13.582l5.2449 14.083-32.52 40.059c-15.329-9.2531-33.868-14.067-51.882-14.067-54.043 0-98.12 43.826-98.12 97.561 0 53.734 44.078 97.559 98.12 97.559 44.46 0 83.555-30.486 95.044-72.623l29.884 5.3394c1.2795 3.5026 4.2607 6.1892 7.8225 8.2913l-5.3302 25.136h-6.8191l-0.5248 6.781 21.508 1.042v-7.302h-5.2466l6.497-25.121c9.6685-1.5721 14.734-9.8008 11.855-17.968l97.621-109.78 4.3705 11.779c-23.693 18.555-37.874 47.138-37.874 76.864 0 53.734 44.078 97.559 98.12 97.559s98.12-43.825 98.12-97.559c0-53.735-44.078-97.561-98.12-97.561-15.715 0-31.813 3.8131-45.427 11.046z" fill-rule="evenodd"/>
</svg>
