<?xml version="1.0" encoding="UTF-8"?>
<svg viewBox="0 0 480.22 303.489" xmlns="http://www.w3.org/2000/svg">
 <path d="m52.188 30.375c-28.821 0-52.188 23.364-52.188 52.188s23.366 52.188 52.188 52.188 52.188-23.366 52.188-52.188-23.366-52.188-52.188-52.188zm0 18.969c18.341 0 33.219 14.876 33.219 33.219s-14.878 33.188-33.219 33.188-33.219-14.848-33.219-33.188 14.877-33.219 33.219-33.219z"/>
 <path d="m220.08 249.81c-39.939 0-39.939 53.676 0 53.676h230.86c38.732 0 38.732-53.676 0-53.676h-230.86z"/>
 <path d="m288.31 65.241v-48.884h-20.608v48.884h20.608z"/>
 <path d="m319.94 17.733v-10.544h-83.388v10.544h83.388z"/>
 <path d="m327.13 0h133.11c17.732 0 17.732 25.401 0 25.401h-133.11c-17.253 0-17.253-25.401 0-25.401z"/>
 <path d="m96.32 0h131.61c17.732 0 17.732 25.401 0 25.401h-131.61c-18.744 0-19.01-25.401 0-25.401z"/>
 <path d="m53.938 63.875c-21 0-25.502 27.321-7.0312 34.5l152.03 60.375 13.281 33.562c2.849 10.543 11.404 23 28.5 23h206.47c23.676-0.115 39.75-19.375 30.25-41.375l-26.5-64.5c-9.5-23.5-30.003-45.562-66.812-45.562h-330.19zm234.69 20.812h35.625v57.031h-35.625v-57.031zm56.781 0h35.125v57.031h-35.125v-57.031zm56.781 2.25c11.013 2.656 22 12.5 29.25 28.75l11.25 26.25h-40.5v-55z"/>
</svg>
