<?xml version="1.0" encoding="UTF-8"?>
<svg version="1.1" viewBox="0 0 817.83 481" xmlns="http://www.w3.org/2000/svg">
 <g transform="translate(.013616 2.0171)" fill="#ff7f00" stroke="#000" stroke-width="5">
  <path d="m206.73 41.276c-0.52048-10.019-1.6952-13.926 1.5053-20.678 5.5839-11.78 17.916-20.944 23.138-20.036 8.2143 1.4286 7.5 6.7857 13.929 13.571 6.4286 6.7857 16.786 23.214 16.786 23.214l-55.357 3.9286z"/>
  <path d="m43.801 21.991s6.4285 75-7.8572 174.28c-13.23 91.946-20 87.143-22.143 118.57-2.1429 31.428 2.1428 82.857 2.1428 82.857s321.43 7.143 410 2.143c88.572-5 301.43-41.429 301.43-41.429s-1.429-27.143-30.714-42.143c-29.286-15-86.429-20-120-32.142-33.572-12.143-134.29-36.429-186.43-102.86-52.143-66.428-98.802-144.56-121.43-155-20.911 2.8249-65 5.7143-120.72 4.2857-55.714-1.4286-104.28-8.5714-104.28-8.5714z"/>
 </g>
 <path d="m226.38 188.65c0 40.041-33.579 72.5-75 72.5s-75-32.459-75-72.5 33.579-72.5 75-72.5 75 32.459 75 72.5z" fill="#3f007f" stroke="#d8d8d8"/>
 <g transform="translate(.013616 2.0171)" fill="none">
  <g stroke="#FFF" stroke-width="48.767">
   <path d="m285.45 78.363c-2.7567 4.9588-10.016 5.9658-16.214 2.2493-6.1983-3.7165-8.9882-10.749-6.2315-15.708 2.7567-4.9588 10.016-5.9658 16.214-2.2493 6.1983 3.7165 8.9882 10.749 6.2315 15.708z"/>
   <path d="m317.6 136.58c-2.7567 4.9588-10.016 5.9658-16.214 2.2493-6.1983-3.7165-8.9882-10.749-6.2315-15.708 2.7567-4.9588 10.016-5.9658 16.214-2.2493 6.1983 3.7165 8.9882 10.749 6.2315 15.708z"/>
   <path d="m353.31 189.43c-2.7567 4.9588-10.016 5.9658-16.214 2.2493-6.1983-3.7165-8.9882-10.749-6.2315-15.708 2.7567-4.9588 10.016-5.9658 16.214-2.2493 6.1983 3.7165 8.9882 10.749 6.2315 15.708z"/>
   <path d="m400.41 236.41c-2.7465 5.0964-9.9789 6.1314-16.154 2.3118-6.1753-3.8197-8.9549-11.048-6.2084-16.144 2.7465-5.0964 9.9789-6.1314 16.154-2.3118 6.1753 3.8197 8.9549 11.048 6.2084 16.144z"/>
   <path d="m456.01 267.86c-1.8198 5.4959-8.7626 7.7711-15.507 5.0818-6.7447-2.6893-10.737-9.3248-8.9175-14.821 1.8198-5.4959 8.7626-7.7711 15.507-5.0818 6.7447 2.6893 10.737 9.3248 8.9175 14.821z"/>
   <path d="m515.45 290.73c-1.7778 4.4657-8.5608 6.3144-15.15 4.1292-6.5894-2.1852-10.49-7.5769-8.712-12.043 1.7778-4.4657 8.5608-6.3144 15.15-4.1292 6.5894 2.1852 10.49 7.5769 8.7121 12.043z"/>
   <path d="m575.45 306.66c-1.7778 4.4657-8.5608 6.3144-15.15 4.1292-6.5894-2.1852-10.49-7.5769-8.7121-12.043 1.7778-4.4657 8.5608-6.3144 15.15-4.1292 6.5894 2.1852 10.49 7.5769 8.7121 12.043z"/>
   <path d="m637.95 317.99c-0.97534 4.285-7.3342 7.0148-14.203 6.0973-6.8687-0.91751-11.646-5.135-10.671-9.4199 0.97534-4.2849 7.3342-7.0148 14.203-6.0973 6.8687 0.91751 11.646 5.135 10.671 9.4199z"/>
  </g>
 </g>
 <g transform="translate(.013616 2.0171)" stroke="#000">
  <g fill="#FFF" stroke-width="5">
   <path d="m792.14 334.32c-6.4286-12.143-15.351-21.733-27.914-24.825-26.017-6.4033-76.072-1.9643-91.429-0.17859-15.357 1.7858 31.964 38.75 50.714 49.464 13.118-5.4076 60.524-13.726 68.628-24.461z"/>
   <path d="m6.7471 380.83s201.35 8.064 344.45 6.041c141.85-2.005 365.82-24.965 441.6-60.592 2.32 6.836 10.571 13.313 13.441 21.256 3.394 9.395 12.944 47.157 7.23 61.443-5.715 14.286-99.243 37.388-170.67 48.817-71.429 11.428-167.23 11.515-242.94 11.515-75.714 0-239.99 8.896-302.85 6.883-62.971-2.017-81.923-7.315-94.12-17.143-1.9107-17.71 3.858-78.23 3.858-78.23h-2e-5 2e-5z" stroke-linejoin="round"/>
  </g>
  <g fill="none">
   <path d="m591.37 368.78c7.5 30.357 16.071 71.429 18.214 94.286" stroke-width="6"/>
   <path d="m6.372 392.7 14.643 2.5-0.7143 72.143" stroke-width="5"/>
   <path d="m20.301 438.78s16.37 6.4125 42.634 6.9176c26.264 0.50507 158.09-3.002 198.5-3.0305 35.864-0.0253 164.64-1.8838 213.14-4.0406 52.515-2.3353 130.31-11.112 130.31-11.112" stroke-width="8"/>
  </g>
 </g>
 <path d="m220.02 36.292c35.633 57.38 43.338 108.72 94.38 166.1s92.454 92.613 162.76 110.73c70.303 18.12 223.43 37.246 223.43 37.246" fill="none" stroke="#FFF" stroke-linecap="round" stroke-width="4.874"/>
 <g transform="translate(.013616 2.0171)" fill="#FFF" stroke="#000" stroke-linejoin="round">
  <path d="m271.37 67.258c1.6964 5.0893 2.8048 5.9822 4.5834 8.9529 22.659-1.1376 25.335-9.9994 40.272-10.059-0.78674-4.8027-7.9798-16.523-14.03-19.599-16.483 4.0652-19.671 7.583-30.825 20.705z" stroke-width="8"/>
  <g stroke-width="10">
   <path d="m302.82 125.08c1.6964 5.0893 3.787 5.8929 5.5656 8.8636 22.659-1.1376 25.424-8.8387 40.361-8.8984-0.78671-4.8027-7.9797-16.523-14.03-19.599-16.483 4.0652-20.742 6.5115-31.896 19.634z"/>
   <path d="m341.53 176.81c1.6964 5.0893 1.0191 7.0536 2.7977 10.024 18.552-14.53 27.656-15.178 39.736-24.166-0.78674-4.8027-7.2655-13.666-13.316-16.742-16.483 4.0652-18.064 17.762-29.218 30.884z"/>
   <path d="m385.98 224.54c1.6964 5.0893 2.8048 5.9822 4.5834 8.9529 16.725-3.663 27.86-18.586 35.663-23.128-0.78674-4.8027-7.4747-9.641-13.525-12.717-16.483 4.0652-27.058 19.074-26.721 26.892z"/>
   <path d="m439.15 259.31c1.6964 5.0893 3.9338 5.5548 8.8691 6.6314 15.62-9.0481 15.628-19.925 18.609-28.664-0.78674-4.8027-12.296-7.2302-18.347-10.306-5.2332 12.458-4.4684 23.359-9.1317 32.339z"/>
   <path d="m497.49 284.75c3.7136 2.1818 8.1218 3.243 13.002 3.4506 4.2597-12.708 5.5978-23.184 5.4105-32.416-2.3819-4.244-13.901-7.7658-20.639-8.5871 4.3941 10.34 3.5378 27.519 2.2269 37.552z"/>
   <path d="m558.59 301.11c4.0138 3.5593 6.4367 4.3589 11.249 2.8237 6.6042-9.7112 3.0666-21.155-0.74109-26.426-3.0827-3.7659-10.223-5.5431-17.001-5.182 0.68683 9.6176 3.1378 18.55 6.4932 28.784z"/>
   <path d="m620.15 314.93c4.0138 3.5593 6.1841 2.8437 10.997 1.3084 5.9728-7.3121 5.0868-11.938 2.5419-18.976-3.0827-3.7659-15.274-6.5532-22.052-6.1921 1.192 5.5769 8.0623 13.751 8.5136 23.859z"/>
  </g>
 </g>
</svg>
